<svg width="147" height="38" viewBox="0 0 147 38" fill="none" xmlns="http://www.w3.org/2000/svg">
<g filter="url(#filter0_d_61_2)">
<path d="M18.52 0.640015C20.1467 0.640015 21.5733 0.880015 22.8 1.36001C24.0267 1.81335 24.9733 2.45335 25.64 3.28002C26.3333 4.08002 26.68 4.97335 26.68 5.96002C26.68 7.02668 26.3067 7.90668 25.56 8.60002C24.84 9.29335 23.8533 9.64002 22.6 9.64002C21.32 9.64002 20.32 9.32002 19.6 8.68002C18.88 8.01335 18.52 7.12002 18.52 6.00002C18.52 5.46668 18.6 4.90668 18.76 4.32001C17.64 4.61335 16.64 5.20002 15.76 6.08002C14.9067 6.93335 14.3333 8.06668 14.04 9.48001C13.88 10.28 13.8 11 13.8 11.64C13.8 13.08 14.2 14.1733 15 14.92C15.8 15.6667 16.9467 16.04 18.44 16.04C19.2933 16.04 20.0267 15.96 20.64 15.8C21.2533 15.6133 21.88 15.3733 22.52 15.08C23.0533 14.8133 23.44 14.68 23.68 14.68C23.84 14.68 23.9467 14.72 24 14.8C24.0533 14.8533 24.08 14.9867 24.08 15.2C24.1067 16.1867 23.6933 17.2267 22.84 18.32C22.0133 19.3867 20.8533 20.2933 19.36 21.04C17.8933 21.76 16.24 22.12 14.4 22.12C12.48 22.12 10.7733 21.7734 9.28001 21.08C7.81335 20.36 6.66668 19.3467 5.84001 18.04C5.04001 16.7067 4.64001 15.16 4.64001 13.4C4.64001 12.5733 4.74668 11.6533 4.96001 10.64C5.68001 7.33335 7.26668 4.84002 9.72002 3.16002C12.2 1.48001 15.1333 0.640015 18.52 0.640015Z" fill="url(#paint0_linear_61_2)"/>
<path d="M41.1597 0.840014C44.7864 0.840014 47.453 1.57335 49.1597 3.04001C50.893 4.50668 51.7597 6.42668 51.7597 8.80002C51.7597 9.60002 51.653 10.4933 51.4397 11.48C50.933 13.6667 49.9864 15.5867 48.5997 17.24C47.213 18.8667 45.5064 20.1333 43.4797 21.04C41.4797 21.92 39.3064 22.36 36.9597 22.36C33.253 22.36 30.5064 21.6267 28.7197 20.16C26.9597 18.6667 26.0797 16.6933 26.0797 14.24C26.0797 13.4133 26.1864 12.4933 26.3997 11.48C26.9064 9.40002 27.8664 7.56002 29.2797 5.96002C30.7197 4.33335 32.4664 3.08002 34.5197 2.20001C36.5997 1.29335 38.813 0.840014 41.1597 0.840014ZM41.0397 4.40002C40.4797 4.40002 39.8797 4.90668 39.2397 5.92002C38.6264 6.90668 37.893 8.78668 37.0397 11.56C36.1864 14.3333 35.7597 16.28 35.7597 17.4C35.7597 17.9867 35.853 18.3867 36.0397 18.6C36.2264 18.7867 36.4797 18.88 36.7997 18.88C37.3597 18.9333 37.933 18.4533 38.5197 17.44C39.133 16.4267 39.893 14.4533 40.7997 11.52C41.6264 8.93335 42.0397 7.05335 42.0397 5.88002C42.0397 5.32002 41.9464 4.93335 41.7597 4.72002C41.5997 4.50668 41.3597 4.40002 41.0397 4.40002Z" fill="url(#paint1_linear_61_2)"/>
<path d="M76.6897 16.48C76.6364 16.5867 76.6097 16.7467 76.6097 16.96C76.6097 17.1467 76.6497 17.2934 76.7297 17.4C76.8364 17.5067 76.9697 17.56 77.1297 17.56C77.4497 17.56 77.7164 17.4267 77.9297 17.16C78.1697 16.8667 78.3297 16.72 78.4097 16.72C78.543 16.72 78.6497 16.8133 78.7297 17C78.8097 17.16 78.8497 17.36 78.8497 17.6C78.8764 18.3733 78.623 19.1333 78.0897 19.88C77.5564 20.6 76.7697 21.2 75.7297 21.68C74.7164 22.1333 73.4897 22.36 72.0497 22.36C70.2897 22.36 68.8897 21.96 67.8497 21.16C66.8097 20.3334 66.2764 19.24 66.2497 17.88C66.2497 16.8933 66.4897 15.7867 66.9697 14.56L69.1697 8.80002C69.303 8.45335 69.3697 8.17335 69.3697 7.96002C69.3697 7.61335 69.2497 7.34668 69.0097 7.16002C68.7964 6.94668 68.5297 6.84002 68.2097 6.84002C67.623 6.84002 67.063 7.12002 66.5297 7.68002C65.9964 8.21335 65.6097 8.88002 65.3697 9.68002L62.8897 17.84C62.783 18.1333 62.7297 18.4133 62.7297 18.68C62.7297 19 62.7964 19.2667 62.9297 19.48C63.063 19.6667 63.2497 19.8667 63.4897 20.08C63.6764 20.24 63.8097 20.3867 63.8897 20.52C63.9697 20.6533 63.983 20.8133 63.9297 21C63.823 21.3467 63.5697 21.6 63.1697 21.76C62.7697 21.92 62.143 22 61.2897 22H52.1697C51.4764 22 50.983 21.8933 50.6897 21.68C50.3697 21.44 50.2497 21.1333 50.3297 20.76C50.4364 20.44 50.7164 20.16 51.1697 19.92C51.5697 19.7067 51.903 19.4534 52.1697 19.16C52.4364 18.8667 52.663 18.4 52.8497 17.76L56.4097 6.20002C56.463 6.06668 56.4897 5.88002 56.4897 5.64002C56.4897 5.34668 56.423 5.12002 56.2897 4.96002C56.183 4.80002 55.9964 4.60002 55.7297 4.36002C55.463 4.14668 55.2764 3.96002 55.1697 3.80002C55.063 3.64002 55.0497 3.42668 55.1297 3.16002C55.2897 2.54668 56.1297 2.01335 57.6497 1.56001C59.1697 1.08001 60.7564 0.840014 62.4097 0.840014C63.743 0.840014 64.7964 1.21335 65.5697 1.96001C66.343 2.68001 66.6897 3.69335 66.6097 5.00002C67.703 3.42668 68.863 2.34668 70.0897 1.76001C71.3164 1.14668 72.6497 0.840014 74.0897 0.840014C75.7164 0.840014 77.023 1.33335 78.0097 2.32002C79.023 3.30668 79.5297 4.58668 79.5297 6.16002C79.5297 6.98668 79.3964 7.80002 79.1297 8.60002L76.6897 16.48Z" fill="url(#paint2_linear_61_2)"/>
<path d="M118.123 6.52002C118.123 8.89335 117.296 11.32 115.643 13.8C113.989 16.28 111.896 18.3333 109.363 19.96C106.856 21.56 104.389 22.36 101.963 22.36C100.043 22.36 98.4158 22.0267 97.0825 21.36C95.7492 20.6933 94.8825 19.7334 94.4825 18.48C93.4958 19.68 92.4025 20.5867 91.2025 21.2C90.0025 21.8133 88.7492 22.12 87.4425 22.12C85.6292 22.12 84.1492 21.68 83.0025 20.8C81.8825 19.8933 81.3225 18.5733 81.3225 16.84C81.3225 15.9333 81.4692 15 81.7625 14.04L84.0025 6.20002C84.0559 5.98668 84.0825 5.82668 84.0825 5.72002C84.0825 5.45335 84.0158 5.22668 83.8825 5.04002C83.7492 4.85335 83.5625 4.65335 83.3225 4.44002C82.9225 4.09335 82.7225 3.78668 82.7225 3.52002C82.6958 3.14668 82.9225 2.74668 83.4025 2.32002C83.8825 1.89335 84.5492 1.54668 85.4025 1.28002C86.2825 0.986682 87.2692 0.840014 88.3625 0.840014C90.1492 0.840014 91.5358 1.28001 92.5225 2.16002C93.5358 3.01335 94.0425 4.13335 94.0425 5.52001C94.0425 6.13335 93.9359 6.80002 93.7225 7.52002L91.6825 14.32C91.5759 14.6933 91.5225 14.9467 91.5225 15.08C91.5225 15.4267 91.6158 15.6933 91.8025 15.88C92.0158 16.0667 92.2959 16.16 92.6425 16.16C93.1225 16.16 93.5225 16 93.8425 15.68C94.1892 15.3333 94.5225 14.7867 94.8425 14.04L97.1225 6.20002C97.1758 5.98668 97.2025 5.82668 97.2025 5.72002C97.2025 5.45335 97.1359 5.22668 97.0025 5.04002C96.8692 4.85335 96.6825 4.65335 96.4425 4.44002C96.0425 4.09335 95.8425 3.78668 95.8425 3.52002C95.8158 3.14668 96.0425 2.74668 96.5225 2.32002C97.0025 1.89335 97.6692 1.54668 98.5225 1.28002C99.4025 0.986682 100.389 0.840014 101.483 0.840014C103.296 0.840014 104.696 1.26668 105.683 2.12002C106.669 2.97335 107.163 4.10668 107.163 5.52001C107.163 6.08001 107.056 6.74668 106.843 7.52002L104.243 16.08C104.189 16.2133 104.163 16.4133 104.163 16.68C104.163 17.0267 104.283 17.2934 104.523 17.48C104.763 17.6667 105.096 17.76 105.523 17.76C106.109 17.76 106.789 17.5067 107.563 17C108.363 16.4667 109.136 15.72 109.883 14.76C110.656 13.7733 111.283 12.6133 111.763 11.28C110.696 10.3467 109.936 9.42668 109.483 8.52002C109.056 7.61335 108.843 6.68002 108.843 5.72002C108.843 4.36002 109.216 3.21335 109.963 2.28001C110.709 1.32001 111.789 0.840014 113.203 0.840014C114.616 0.840014 115.789 1.34668 116.723 2.36002C117.656 3.37335 118.123 4.76002 118.123 6.52002Z" fill="url(#paint3_linear_61_2)"/>
<path d="M138.833 0.840014C140.006 0.840014 140.939 1.32001 141.633 2.28001C142.353 3.21335 142.713 4.49335 142.713 6.12002C142.713 7.53335 142.46 9.05335 141.953 10.68C140.966 13.96 139.379 17.0533 137.193 19.96C135.033 22.8667 132.539 25.2 129.713 26.96C126.913 28.72 124.113 29.6 121.313 29.6C119.926 29.6 118.726 29.36 117.713 28.88C116.726 28.4 115.979 27.76 115.473 26.96C114.939 26.16 114.673 25.3067 114.673 24.4C114.673 24 114.739 23.56 114.873 23.08C115.113 22.3334 115.513 21.76 116.073 21.36C116.633 20.96 117.299 20.76 118.073 20.76C119.299 20.76 120.299 21.1733 121.073 22C121.873 22.8533 122.379 24.0134 122.593 25.48C124.299 25.4 125.873 24.6667 127.313 23.28C125.953 23.04 124.939 22.5867 124.273 21.92C123.633 21.2267 123.193 20.16 122.953 18.72L121.353 8.92002C121.273 8.41335 121.153 8.06668 120.993 7.88002C120.859 7.66668 120.673 7.56001 120.433 7.56001C120.246 7.56001 120.019 7.65335 119.753 7.84002C119.513 8.02668 119.339 8.12002 119.233 8.12002C119.019 8.12002 118.913 7.89335 118.913 7.44002C118.913 7.06668 118.979 6.66668 119.113 6.24002C119.593 4.72001 120.486 3.44002 121.793 2.40002C123.099 1.33335 124.619 0.800015 126.353 0.800015C128.059 0.800015 129.313 1.30668 130.113 2.32002C130.939 3.33335 131.473 4.89335 131.713 7.00002L132.913 15.8C132.993 16.4667 133.233 16.8 133.633 16.8C134.113 16.8 134.673 16.3733 135.313 15.52C135.953 14.64 136.579 13.4 137.193 11.8C136.393 11.08 135.779 10.2533 135.353 9.32002C134.926 8.38668 134.713 7.38668 134.713 6.32002C134.713 5.49335 134.819 4.74668 135.033 4.08002C135.353 3.01335 135.846 2.21335 136.513 1.68002C137.206 1.12001 137.979 0.840014 138.833 0.840014Z" fill="url(#paint4_linear_61_2)"/>
</g>
<defs>
<filter id="filter0_d_61_2" x="0.640015" y="0.640015" width="146.073" height="36.96" filterUnits="userSpaceOnUse" color-interpolation-filters="sRGB">
<feFlood flood-opacity="0" result="BackgroundImageFix"/>
<feColorMatrix in="SourceAlpha" type="matrix" values="0 0 0 0 0 0 0 0 0 0 0 0 0 0 0 0 0 0 127 0" result="hardAlpha"/>
<feOffset dy="4"/>
<feGaussianBlur stdDeviation="2"/>
<feComposite in2="hardAlpha" operator="out"/>
<feColorMatrix type="matrix" values="0 0 0 0 0 0 0 0 0 0 0 0 0 0 0 0 0 0 0.25 0"/>
<feBlend mode="normal" in2="BackgroundImageFix" result="effect1_dropShadow_61_2"/>
<feBlend mode="normal" in="SourceGraphic" in2="effect1_dropShadow_61_2" result="shape"/>
</filter>
<linearGradient id="paint0_linear_61_2" x1="105" y1="-19" x2="105" y2="43" gradientUnits="userSpaceOnUse">
<stop stop-color="#00DFFF"/>
<stop offset="1" stop-color="#E644FF"/>
</linearGradient>
<linearGradient id="paint1_linear_61_2" x1="105" y1="-19" x2="105" y2="43" gradientUnits="userSpaceOnUse">
<stop stop-color="#00DFFF"/>
<stop offset="1" stop-color="#E644FF"/>
</linearGradient>
<linearGradient id="paint2_linear_61_2" x1="105" y1="-19" x2="105" y2="43" gradientUnits="userSpaceOnUse">
<stop stop-color="#00DFFF"/>
<stop offset="1" stop-color="#E644FF"/>
</linearGradient>
<linearGradient id="paint3_linear_61_2" x1="105" y1="-19" x2="105" y2="43" gradientUnits="userSpaceOnUse">
<stop stop-color="#00DFFF"/>
<stop offset="1" stop-color="#E644FF"/>
</linearGradient>
<linearGradient id="paint4_linear_61_2" x1="105" y1="-19" x2="105" y2="43" gradientUnits="userSpaceOnUse">
<stop stop-color="#00DFFF"/>
<stop offset="1" stop-color="#E644FF"/>
</linearGradient>
</defs>
</svg>
